<?xml version="1.0"?>
<svg width="162" height="56" xmlns="http://www.w3.org/2000/svg" xmlns:svg="http://www.w3.org/2000/svg">
 <g class="layer">
  <title>Layer 1</title>
  <path d="m100.27,23.2c0.97,0.99 0.97,2.59 0,3.58l-10.19,10.36a1.64,1.64 0 0 1 -2.35,0l-11.88,-12.09c-0.47,-0.47 -0.73,-1.12 -0.73,-1.79l0,-21.57c0,-1.5 1.79,-2.26 2.83,-1.19l22.32,22.7l0,0zm-44.97,13.3a2.46,2.46 0 0 0 3.52,0l11.29,-11.48c0.47,-0.48 0.73,-1.12 0.73,-1.79l0,-21.52c0,-1.5 -1.79,-2.26 -2.83,-1.19l-22.28,22.66c-0.97,0.99 -0.97,2.6 0,3.59l9.57,9.73z" fill="#007f7f" id="svg_1" transform="matrix(1 0 0 1 0 0)"/>
  <g id="svg_2">
   <rect fill="#3f7f00" height="19.12" id="svg_3" rx="3.1" transform="rotate(315 72.9525 42.418)" width="18.97" x="63.47" y="32.86"/>
  </g>
 </g>
</svg>